<?xml version="1.0" encoding="utf-8"?>
<!-- Generator: Adobe Illustrator 24.0.1, SVG Export Plug-In . SVG Version: 6.00 Build 0)  -->
<svg version="1.1" id="Layer_1" xmlns="http://www.w3.org/2000/svg" xmlns:xlink="http://www.w3.org/1999/xlink" x="0px" y="0px"
	 viewBox="0 0 1024 768" style="enable-background:new 0 0 1024 768;" xml:space="preserve">
<style type="text/css">
	.st0{fill:#646464;}
	.st1{fill:url(#path1948_1_);}
	.st2{fill:url(#path1950_1_);}
	.st3{fill:#FFFFFF;}
	.st4{fill:#3674A7;}
	.st5{fill:#E76026;}
	.st6{fill:none;stroke:#F15A24;stroke-width:2;stroke-miterlimit:10;}
	.st7{fill:#EF6A22;}
	.st8{fill:#FFFFFF;stroke:#F15A24;stroke-width:2;stroke-miterlimit:10;}
	.st9{opacity:0.31;}
</style>
<path id="path46" class="st0" d="M513.4,331.5c0-17.3-4.9-26.2-14.8-26.7c-3.9-0.2-7.8,0.4-11.5,1.9c-3,1.1-5,2.1-6,3.2v41.4
	c6.3,4,11.9,5.8,16.8,5.5C508.2,356,513.4,347.6,513.4,331.5z M525.6,332.2c0,8.8-2.1,16.1-6.2,21.9c-4.6,6.6-11,10-19.2,10.2
	c-6.2,0.2-12.6-1.7-19.1-5.8v37.6l-10.6-3.8v-83.5c1.7-2.1,4-4,6.7-5.5c6.3-3.7,14-5.6,23-5.7l0.2,0.2c8.2-0.1,14.6,3.3,19.1,10.2
	C523.5,314.3,525.6,322.3,525.6,332.2z"/>
<path id="path48" class="st0" d="M590.4,356.9c0,11.8-1.2,20-3.5,24.5c-2.4,4.5-6.9,8.2-13.6,10.9c-5.4,2.1-11.3,3.3-17.6,3.5
	l-1.8-6.7c6.4-0.9,10.9-1.7,13.5-2.6c5.1-1.7,8.7-4.4,10.6-8c1.6-2.9,2.3-8.5,2.3-16.7v-2.8c-7.3,3.3-14.8,4.9-22.8,4.9
	c-5.2,0-9.8-1.6-13.8-4.9c-4.5-3.6-6.7-8.1-6.7-13.6v-44.1l10.6-3.6v44.4c0,4.7,1.5,8.4,4.6,11c3.1,2.6,7,3.8,11.9,3.7
	c4.9-0.1,10.1-2,15.6-5.7v-51.8h10.6V356.9z"/>
<path id="path50" class="st0" d="M631.8,363.7c-1.3,0.1-2.4,0.2-3.5,0.2c-6,0-10.7-1.4-14-4.3c-3.3-2.9-5-6.8-5-11.9v-41.8H602v-6.7
	h7.3v-17.7l10.6-3.8v21.5h11.9v6.7h-11.9v41.5c0,4,1.1,6.8,3.2,8.4c1.8,1.4,4.7,2.1,8.7,2.3V363.7z"/>
<path id="path52" class="st0" d="M695.9,362.8h-10.6v-40.9c0-4.2-1-7.7-2.9-10.7c-2.2-3.4-5.3-5.1-9.3-5.1c-4.9,0-10.9,2.6-18.2,7.7
	v49.1h-10.6V265l10.6-3.3v44.6c6.8-4.9,14.2-7.4,22.2-7.4c5.6,0,10.2,1.9,13.6,5.7c3.5,3.8,5.2,8.5,5.2,14.1V362.8L695.9,362.8z"/>
<path id="path54" class="st0" d="M752.3,329.8c0-6.7-1.3-12.2-3.8-16.5c-3-5.3-7.6-8.1-13.9-8.4c-11.6,0.7-17.4,9-17.4,25
	c0,7.3,1.2,13.4,3.6,18.3c3.1,6.3,7.8,9.3,14,9.2C746.5,357.4,752.3,348.1,752.3,329.8z M763.9,329.9c0,9.5-2.4,17.4-7.3,23.7
	c-5.3,7.1-12.7,10.6-22.1,10.6c-9.3,0-16.6-3.5-21.8-10.6c-4.7-6.3-7.1-14.2-7.1-23.7c0-8.9,2.6-16.4,7.7-22.5
	c5.4-6.5,12.5-9.7,21.3-9.7s16,3.2,21.5,9.7C761.4,313.5,763.9,321,763.9,329.9z"/>
<path id="path56" class="st0" d="M824.7,362.8h-10.6v-43.2c0-4.7-1.4-8.4-4.3-11.1c-2.9-2.7-6.7-3.9-11.4-3.8
	c-5,0.1-9.8,1.7-14.4,4.9v53.3h-10.6v-54.6c6.1-4.4,11.7-7.3,16.8-8.7c4.8-1.3,9.1-1.9,12.8-1.9c2.5,0,4.9,0.2,7.1,0.7
	c4.2,1,7.6,2.7,10.2,5.4c2.9,2.9,4.4,6.4,4.4,10.5V362.8z"/>
<linearGradient id="path1948_1_" gradientUnits="userSpaceOnUse" x1="347.4735" y1="179.6649" x2="201.2018" y2="180.8277" gradientTransform="matrix(1.1901 0 0 -1.1901 -38.6085 569.1845)">
	<stop  offset="0" style="stop-color:#366A96"/>
	<stop  offset="1" style="stop-color:#3679B0"/>
</linearGradient>
<path id="path1948" class="st1" d="M261.6,299c0-16.2,4.3-25,28.4-29.2c16.3-2.9,37.2-3.2,56.7,0c15.4,2.5,28.4,14,28.4,29.2v53.5
	c0,15.7-12.6,28.5-28.4,28.5h-56.7c-19.2,0-35.4,16.4-35.4,34.9v25.7H235c-16.5,0-26.1-11.9-30.1-28.5c-5.4-22.3-5.2-35.7,0-57.1
	c4.5-18.7,18.9-28.5,35.4-28.5h21.3h56.7v-7.1h-56.7V299L261.6,299z"/>
<linearGradient id="path1950_1_" gradientUnits="userSpaceOnUse" x1="398.7897" y1="129.3193" x2="109.2412" y2="129.3193" gradientTransform="matrix(1.1901 0 0 -1.1901 -38.6085 569.1845)">
	<stop  offset="0" style="stop-color:#FFC836"/>
	<stop  offset="1" style="stop-color:#FFE873"/>
</linearGradient>
<path id="path1950" class="st2" d="M374.9,470.2c0,16.2-14.1,24.4-28.4,28.5c-21.5,6.2-38.7,5.2-56.7,0c-15-4.4-28.4-13.3-28.4-28.5
	v-53.5c0-15.4,12.8-28.5,28.4-28.5h56.7c18.9,0,35.4-16.3,35.4-35.7v-24.9h21.3c16.5,0,24.3,12.3,28.4,28.5
	c5.7,22.6,5.9,39.5,0,57.1c-5.7,17.1-11.9,28.5-28.4,28.5h-28.4h-56.7v7.1h56.7V470.2z"/>
<path id="path1952" class="st3" d="M275.7,295.5c0-5.9,4.7-10.7,10.6-10.7c5.9,0,10.6,4.8,10.6,10.7c0,5.9-4.8,10.7-10.6,10.7
	C280.5,306.2,275.7,301.4,275.7,295.5z"/>
<path id="path1954" class="st3" d="M339.5,473.7c0-5.9,4.8-10.7,10.6-10.7c5.9,0,10.6,4.8,10.6,10.7c0,5.9-4.7,10.7-10.6,10.7
	C344.3,484.5,339.5,479.7,339.5,473.7z"/>
<g>
	<path class="st4" d="M622.6,423.6c0,4-0.2,9.1-1.9,12.1c-2.8,5.3-10.8,7.5-16.4,7.6l-0.8-3.5c4.3-0.6,10.4-1.2,12.7-5.6
		c1.1-2.1,1.2-6.3,1.2-8.8c0-0.8,0.1-1.6,0-2.4c-3.4,2.3-6.6,3.6-10.8,3.5c-9.2,0-13.2-9.2-13.2-17.2c0-7.6,4.3-17.5,13.1-17.5
		c5.2,0,11.4,1.9,16.2,6.1L622.6,423.6z M617.1,398.6c-2.8-1.8-5.3-3-8.6-3c-7,0-9.1,8.3-9.1,13.9c0,5.3,2.1,13.3,8.7,13.3
		c3.4,0,6.1-1.7,9-3.4V398.6z"/>
	<path class="st4" d="M631.5,418.2v-43.6l5.4-1.8V418c0,4.4,2.4,5.5,6.3,5.6v2.9C635.8,427.2,631.5,423.9,631.5,418.2z"/>
	<path class="st4" d="M658,426.6c-6-0.2-11-5-10.8-11.1c0.1-6.5,5.1-10.5,11.5-10.4c3.7,0,6,0,9.1,0v-3.3c0-3.8-3.5-6.4-7.2-6.4
		c-3.4,0-5.8,0.8-8.8,2.4l-1.4-3.2c4-2.1,7-2.9,11.6-2.9c5.6,0,11.1,3.7,11.1,9.8v19.3C669.8,424.1,664.7,426.7,658,426.6z
		 M667.6,408.7c-1.8,0-4.6,0-7.3,0.1c-4.3,0-7.5,2.4-7.5,6.6c0,3.8,3.2,7.5,7.6,7.5c3.2,0.1,6.2-1.7,7.2-2.7V408.7z"/>
	<path class="st4" d="M679.7,423.2l2-3.2c2.3,1.8,5.6,2.9,8.6,3c3.7,0,8-1.7,7.9-5.9c-0.1-3.3-3.1-4.3-5.6-5.3
		c-1-0.4-2.1-0.8-3.1-1.1c-2.1-0.8-4.2-1.5-6-2.9c-1.8-1.3-3.2-3.2-3.2-6.3c0-6.4,5.7-9.9,11.7-9.9c3.4,0,6.6,1.1,9.7,2.8l-2.1,3.3
		c-2.5-1.4-4.9-2.1-7.3-2.2c-3.2,0-6.7,1.7-6.8,5.3c0,1.9,1.1,3,2.9,3.7c1.7,0.8,4,1.7,6.1,2.5c2.1,0.8,4.2,1.6,5.9,3
		c1.8,1.4,3.2,3.4,3.2,6.5c-0.1,7.2-6.9,10.5-13.3,10.5C686.5,426.9,682.6,425.4,679.7,423.2z"/>
	<path class="st4" d="M738,423.6c0,4-0.2,9.1-1.9,12.1c-2.8,5.3-10.8,7.5-16.4,7.6l-0.8-3.5c4.3-0.6,10.4-1.2,12.7-5.6
		c1.1-2.1,1.2-6.3,1.2-8.8c0-0.8,0.1-1.6,0-2.4c-3.4,2.3-6.6,3.6-10.8,3.5c-9.2,0-13.2-9.2-13.2-17.2c0-7.6,4.3-17.5,13.1-17.5
		c5.2,0,11.4,1.9,16.2,6.1L738,423.6z M732.5,398.6c-2.8-1.8-5.3-3-8.6-3c-7,0-9.1,8.3-9.1,13.9c0,5.3,2.1,13.3,8.7,13.3
		c3.4,0,6.1-1.7,9-3.4V398.6z"/>
	<path class="st4" d="M760.1,391.8c9.6,0.1,15.3,7.9,15.3,16.9c0,9.2-5,17.9-15.4,18c-10.3-0.1-15.2-8.8-15.2-18
		C744.9,399.7,750.6,391.8,760.1,391.8z M751,408.7c0,6.4,2.1,14.5,9.2,14.6c7.8-0.2,9.2-8.2,9.2-14.6c0-6-2.1-12.7-9.3-13.1
		C752.4,396,750.9,402.7,751,408.7L751,408.7z"/>
	<path class="st4" d="M811.5,426.6l-8.8-26.6l-7.2,25l-4.6,1.6l-10.8-33l5.1-1.8l8.5,26l6.8-24.2l5.1-1.8l8.6,26l7.3-26l3.4,1.2
		l-9.1,32L811.5,426.6z"/>
</g>
<g>
	<g>
		<g>
			<path class="st5" d="M340.1,266.5c31.6,10.8,55.5,24.4,53.5,30.5l-1.7,5.1c-2.1,6.1-29.4,2.3-61-8.5s-55.5-24.4-53.5-30.5
				l1.7-5.1C281.3,252,308.6,255.8,340.1,266.5z"/>
			<path class="st6" d="M340.1,266.5c31.6,10.8,55.5,24.4,53.5,30.5l-1.7,5.1c-2.1,6.1-29.4,2.3-61-8.5s-55.5-24.4-53.5-30.5
				l1.7-5.1C281.3,252,308.6,255.8,340.1,266.5z"/>
		</g>
		<g>
			<path class="st7" d="M294.4,262.1l73.4-100.4l14.4,4.9l-3.1,124.7c0,0.2,0,0.3,0,0.5l0,0.3l-0.1,0c-1.5,4.5-21.9,1.7-45.5-6.3
				c-23.6-8-41.4-18.2-39.9-22.7C293.8,262.7,294,262.4,294.4,262.1z"/>
			<path class="st6" d="M294.4,262.1l73.4-100.4l14.4,4.9l-3.1,124.7c0,0.2,0,0.3,0,0.5l0,0.3l-0.1,0c-1.5,4.5-21.9,1.7-45.5-6.3
				c-23.6-8-41.4-18.2-39.9-22.7C293.8,262.7,294,262.4,294.4,262.1z"/>
		</g>
		<g>
			<ellipse transform="matrix(0.3223 -0.9466 0.9466 0.3223 98.715 466.2426)" class="st5" cx="375" cy="164.2" rx="1.9" ry="7.6"/>
			<ellipse transform="matrix(0.3223 -0.9466 0.9466 0.3223 98.715 466.2426)" class="st6" cx="375" cy="164.2" rx="1.9" ry="7.6"/>
		</g>
		<g>
			<path class="st7" d="M371.3,162.9c0.2-0.5,2-0.4,4,0.3c2.1,0.7,3.6,1.7,3.4,2.2c-0.2,0.5-2,0.4-4-0.3
				C372.6,164.4,371.1,163.4,371.3,162.9z"/>
			<path class="st6" d="M371.3,162.9c0.2-0.5,2-0.4,4,0.3c2.1,0.7,3.6,1.7,3.4,2.2c-0.2,0.5-2,0.4-4-0.3
				C372.6,164.4,371.1,163.4,371.3,162.9z"/>
		</g>
	</g>
	<path class="st8" d="M380.7,228.7l-0.9,34c-24.3-2.7-47.8-10.7-68.8-23.4l20.1-27.4C346.7,220,363.4,225.7,380.7,228.7z"/>
	<g class="st9">
		<path class="st7" d="M380.5,165.6l-3,125.8c0,0.2,0,0.3,0,0.5l0,0.3l-0.1,0c-0.9,2.4-7.3,2.4-17,0.5l15.7-127l0,0
			C378.5,166.2,380.3,166.2,380.5,165.6z"/>
		<path class="st6" d="M380.5,165.6l-3,125.8c0,0.2,0,0.3,0,0.5l0,0.3l-0.1,0c-0.9,2.4-7.3,2.4-17,0.5l15.7-127l0,0
			C378.5,166.2,379,166,380.5,165.6z"/>
	</g>
</g>
</svg>
