<?xml version="1.0" encoding="utf-8"?>
<!-- Generator: Adobe Illustrator 18.0.0, SVG Export Plug-In . SVG Version: 6.00 Build 0)  -->
<!DOCTYPE svg PUBLIC "-//W3C//DTD SVG 1.1//EN" "http://www.w3.org/Graphics/SVG/1.1/DTD/svg11.dtd">
<svg version="1.1" id="Layer_1" xmlns="http://www.w3.org/2000/svg" xmlns:xlink="http://www.w3.org/1999/xlink" x="0px" y="0px"
	 viewBox="0 0 887.2 171" style="enable-background:new 0 0 887.2 171;" xml:space="preserve">
<style type="text/css">
	.st0{fill:#646464;}
	.st1{fill:url(#path1948_1_);}
	.st2{fill:url(#path1950_1_);}
	.st3{fill:#FFFFFF;}
	.st4{fill:#3674A7;}
	.st5{fill:#E76026;}
	.st6{fill:none;stroke:#F15A24;stroke-width:2;stroke-miterlimit:10;}
	.st7{fill:#EF6A22;}
	.st8{fill:#FFFFFF;stroke:#F15A24;stroke-width:2;stroke-miterlimit:10;}
	.st9{opacity:0.31;}
</style>
<g>
	<path id="path46" class="st0" d="M177.1,99.3c0-15.2-4.3-23-13-23.4c-3.4-0.2-6.8,0.4-10.1,1.7c-2.6,0.9-4.4,1.9-5.3,2.8v36.2
		c5.5,3.5,10.5,5.1,14.7,4.8C172.6,120.8,177.1,113.5,177.1,99.3z M187.8,99.9c0,7.7-1.8,14.1-5.4,19.2c-4.1,5.8-9.7,8.7-16.9,8.9
		c-5.4,0.2-11-1.5-16.7-5.1v32.9l-9.3-3.3V79.5c1.5-1.9,3.5-3.5,5.9-4.8c5.5-3.2,12.2-4.9,20.2-5l0.1,0.1c7.2-0.1,12.8,2.9,16.7,8.9
		C186,84.2,187.8,91.3,187.8,99.9z"/>
	<path id="path48" class="st0" d="M244.6,121.6c0,10.3-1,17.5-3.1,21.5c-2.1,4-6,7.2-11.9,9.5c-4.7,1.9-9.9,2.9-15.4,3.1l-1.5-5.9
		c5.6-0.8,9.5-1.5,11.8-2.3c4.5-1.5,7.6-3.9,9.3-7c1.4-2.6,2-7.4,2-14.6v-2.4c-6.4,2.9-13,4.3-20,4.3c-4.6,0-8.6-1.4-12.1-4.3
		c-3.9-3.1-5.9-7.1-5.9-12V72.9l9.3-3.2v38.9c0,4.2,1.3,7.4,4,9.6c2.7,2.2,6.2,3.3,10.4,3.2c4.3-0.1,8.8-1.7,13.7-5V71.1h9.3V121.6z
		"/>
	<path id="path50" class="st0" d="M280.9,127.5c-1.1,0.1-2.1,0.1-3.1,0.1c-5.3,0-9.4-1.3-12.3-3.8c-2.9-2.5-4.4-6-4.4-10.4V76.9
		h-6.4v-5.8h6.4V55.6l9.3-3.3v18.8h10.4v5.8h-10.4v36.3c0,3.5,0.9,6,2.8,7.4c1.6,1.2,4.2,1.9,7.6,2V127.5z"/>
	<path id="path52" class="st0" d="M337.1,126.8h-9.3V90.9c0-3.6-0.9-6.8-2.6-9.4c-2-3-4.7-4.5-8.2-4.5c-4.3,0-9.6,2.2-16,6.7v43
		h-9.3V41.1l9.3-2.9v39c5.9-4.3,12.4-6.5,19.5-6.5c4.9,0,8.9,1.7,12,5c3.1,3.3,4.6,7.4,4.6,12.3V126.8L337.1,126.8z"/>
	<path id="path54" class="st0" d="M386.5,97.9c0-5.8-1.1-10.7-3.3-14.5c-2.6-4.6-6.7-7.1-12.2-7.3c-10.2,0.6-15.3,7.9-15.3,21.9
		c0,6.4,1.1,11.8,3.2,16.1c2.7,5.5,6.8,8.2,12.3,8.1C381.4,122,386.5,113.9,386.5,97.9z M396.7,97.9c0,8.3-2.1,15.2-6.4,20.7
		c-4.7,6.2-11.1,9.3-19.3,9.3c-8.2,0-14.5-3.1-19.1-9.3c-4.2-5.5-6.2-12.4-6.2-20.7c0-7.8,2.2-14.4,6.7-19.7
		c4.7-5.7,11-8.5,18.7-8.5c7.7,0,14,2.8,18.8,8.5C394.4,83.5,396.7,90.1,396.7,97.9z"/>
	<path id="path56" class="st0" d="M449.9,126.8h-9.3V88.9c0-4.2-1.3-7.4-3.8-9.7c-2.5-2.3-5.8-3.5-10-3.4c-4.4,0.1-8.6,1.5-12.6,4.3
		v46.7H405V79c5.3-3.9,10.3-6.4,14.8-7.6c4.2-1.1,8-1.7,11.2-1.7c2.2,0,4.3,0.2,6.2,0.6c3.6,0.8,6.6,2.4,8.9,4.7
		c2.6,2.5,3.8,5.6,3.8,9.2V126.8z"/>
</g>
<linearGradient id="path1948_1_" gradientUnits="userSpaceOnUse" x1="110.5666" y1="398.0372" x2="42.0144" y2="398.5822" gradientTransform="matrix(1.1901 0 0 -1.1901 -38.6085 569.1845)">
	<stop  offset="0" style="stop-color:#366A96"/>
	<stop  offset="1" style="stop-color:#3679B0"/>
</linearGradient>
<path id="path1948" class="st1" d="M39.9,69.1c0-7.6,2-11.7,13.3-13.7c7.6-1.3,17.4-1.5,26.6,0C86.9,56.6,93,61.9,93,69.1v25.1
	c0,7.4-5.9,13.4-13.3,13.4H53.1c-9,0-16.6,7.7-16.6,16.4v12h-9.1c-7.7,0-12.2-5.6-14.1-13.4c-2.5-10.5-2.4-16.7,0-26.7
	c2.1-8.7,8.9-13.4,16.6-13.4h10h26.6v-3.3H39.9V69.1L39.9,69.1z"/>
<linearGradient id="path1950_1_" gradientUnits="userSpaceOnUse" x1="134.6166" y1="374.4422" x2="-1.0841" y2="374.4422" gradientTransform="matrix(1.1901 0 0 -1.1901 -38.6085 569.1845)">
	<stop  offset="0" style="stop-color:#FFC836"/>
	<stop  offset="1" style="stop-color:#FFE873"/>
</linearGradient>
<path id="path1950" class="st2" d="M93,149.3c0,7.6-6.6,11.4-13.3,13.4c-10.1,2.9-18.1,2.5-26.6,0c-7-2-13.3-6.2-13.3-13.4v-25.1
	c0-7.2,6-13.4,13.3-13.4h26.6c8.8,0,16.6-7.6,16.6-16.7V82.4h10c7.7,0,11.4,5.7,13.3,13.4c2.7,10.6,2.8,18.5,0,26.7
	c-2.7,8-5.6,13.4-13.3,13.4H93H66.4v3.3H93V149.3z"/>
<path id="path1952" class="st3" d="M46.5,67.4c0-2.8,2.2-5,5-5c2.7,0,5,2.2,5,5c0,2.8-2.2,5-5,5C48.7,72.4,46.5,70.2,46.5,67.4z"/>
<path id="path1954" class="st3" d="M76.4,151c0-2.8,2.2-5,5-5c2.8,0,5,2.2,5,5c0,2.8-2.2,5-5,5C78.6,156,76.4,153.7,76.4,151z"/>
<g>
	<path class="st4" d="M525.6,122c0,7-0.4,15.7-3.3,21c-4.9,9.3-18.7,13-28.4,13.2l-1.5-6.1c7.4-1.1,18-2.1,22-9.7
		c2-3.7,2.1-11,2.1-15.2c0-1.5,0.1-2.8,0-4.1c-6,4-11.4,6.2-18.8,6.1c-15.9,0-22.9-15.9-22.9-29.9c0-13.1,7.4-30.4,22.8-30.4
		c9,0,19.8,3.3,28.2,10.6L525.6,122z M516.1,78.7c-4.9-3-9.1-5.2-14.9-5.2c-12.2,0-15.7,14.4-15.7,24.1c0,9.3,3.6,23.2,15.1,23.2
		c6,0,10.6-2.9,15.6-6V78.7z"/>
	<path class="st4" d="M541.2,112.6V37l9.4-3v78.3c0,7.7,4.1,9.5,10.8,9.8v5C548.6,128.3,541.2,122.5,541.2,112.6z"/>
	<path class="st4" d="M587.1,127.3c-10.5-0.3-19.1-8.6-18.8-19.2c0.1-11.2,8.9-18.1,20-18c6.4,0,10.5,0,15.7,0v-5.7
		c0-6.6-6.1-11.1-12.6-11.1c-5.8,0-10.1,1.5-15.2,4.1l-2.4-5.6c6.9-3.7,12.2-5,20.1-5c9.7,0,19.2,6.4,19.2,17.1v33.5
		C607.6,122.9,598.6,127.4,587.1,127.3z M603.8,96.2c-3,0-7.9,0-12.7,0.1c-7.4,0-13,4.2-13,11.5c0,6.6,5.6,13,13.2,13
		c5.6,0.1,10.7-2.9,12.4-4.8V96.2z"/>
	<path class="st4" d="M624.7,121.3l3.4-5.6c4,3,9.8,5,15,5.2c6.4,0,13.9-2.9,13.6-10.2c-0.1-5.7-5.3-7.4-9.7-9.1
		c-1.7-0.7-3.6-1.5-5.4-2c-3.6-1.3-7.3-2.6-10.3-5c-3.2-2.2-5.6-5.6-5.6-11c0-11.1,9.9-17.2,20.2-17.2c6,0,11.5,2,16.8,4.9l-3.6,5.7
		c-4.4-2.5-8.5-3.7-12.7-3.8c-5.6,0-11.6,2.9-11.8,9.1c0,3.3,2,5.2,5,6.5c2.9,1.3,6.9,2.9,10.6,4.4c3.6,1.5,7.3,2.8,10.3,5.2
		c3.2,2.5,5.6,6,5.6,11.2c-0.1,12.4-11.9,18.3-23,18.3C636.4,127.8,629.7,125.1,624.7,121.3z"/>
	<path class="st4" d="M725.9,122c0,7-0.4,15.7-3.3,21c-4.9,9.3-18.7,13-28.4,13.2l-1.5-6.1c7.4-1.1,18-2.1,22-9.7
		c2-3.7,2.1-11,2.1-15.2c0-1.5,0.1-2.8,0-4.1c-6,4-11.4,6.2-18.8,6.1c-15.9,0-22.9-15.9-22.9-29.9c0-13.1,7.4-30.4,22.8-30.4
		c9,0,19.8,3.3,28.2,10.6L725.9,122z M716.3,78.7c-4.9-3-9.1-5.2-14.9-5.2c-12.2,0-15.7,14.4-15.7,24.1c0,9.3,3.6,23.2,15.1,23.2
		c6,0,10.6-2.9,15.6-6V78.7z"/>
	<path class="st4" d="M764.2,66.8c16.7,0.1,26.5,13.8,26.6,29.4c0,16-8.7,31.1-26.7,31.2c-17.9-0.1-26.3-15.2-26.3-31.2
		C737.8,80.6,747.7,66.9,764.2,66.8z M748.4,96.2c0,11.1,3.6,25.1,16,25.3c13.5-0.4,15.9-14.2,15.9-25.3c0-10.5-3.7-22.1-16.1-22.8
		c-13.2,0.8-15.9,12.3-15.9,22.8H748.4z"/>
	<path class="st4" d="M853.4,127.3l-15.2-46.2l-12.4,43.4l-7.9,2.8L799.2,70l8.9-3.2l14.8,45.1L834.6,70l8.9-3.2l15,45.1l12.7-45.1
		l6,2.1l-15.7,55.6L853.4,127.3z"/>
</g>
<g>
	<g>
		<g>
			<path class="st5" d="M76.7,53.8c14.8,5,26,11.4,25.1,14.3l-0.8,2.4c-1,2.9-13.8,1.1-28.6-4c-14.8-5-26-11.4-25.1-14.3l0.8-2.4
				C49.1,47,61.9,48.8,76.7,53.8z"/>
			<path class="st6" d="M76.7,53.8c14.8,5,26,11.4,25.1,14.3l-0.8,2.4c-1,2.9-13.8,1.1-28.6-4c-14.8-5-26-11.4-25.1-14.3l0.8-2.4
				C49.1,47,61.9,48.8,76.7,53.8z"/>
		</g>
		<g>
			<path class="st7" d="M55.2,51.8L89.6,4.7L96.4,7l-1.5,58.4c0,0.1,0,0.2,0,0.2l0,0.1l0,0c-0.7,2.1-10.3,0.8-21.3-3
				c-11-3.8-19.4-8.5-18.7-10.7C55,52,55.1,51.9,55.2,51.8z"/>
			<path class="st6" d="M55.2,51.8L89.6,4.7L96.4,7l-1.5,58.4c0,0.1,0,0.2,0,0.2l0,0.1l0,0c-0.7,2.1-10.3,0.8-21.3-3
				c-11-3.8-19.4-8.5-18.7-10.7C55,52,55.1,51.9,55.2,51.8z"/>
		</g>
		<g>
			<ellipse transform="matrix(-0.9466 -0.3223 0.3223 -0.9466 179.1766 41.408)" class="st5" cx="93" cy="5.9" rx="3.6" ry="0.9"/>
			<ellipse transform="matrix(-0.9466 -0.3223 0.3223 -0.9466 179.1766 41.408)" class="st6" cx="93" cy="5.9" rx="3.6" ry="0.9"/>
		</g>
		<g>
			<ellipse transform="matrix(-0.9466 -0.3223 0.3223 -0.9466 179.1766 41.408)" class="st7" cx="93" cy="5.9" rx="1.8" ry="0.5"/>
			<ellipse transform="matrix(-0.9466 -0.3223 0.3223 -0.9466 179.1766 41.408)" class="st6" cx="93" cy="5.9" rx="1.8" ry="0.5"/>
		</g>
	</g>
	<path class="st8" d="M95.7,36.1L95.3,52c-11.4-1.3-22.4-5-32.2-11l9.4-12.9C79.7,32,87.6,34.7,95.7,36.1z"/>
	<g class="st9">
		<path class="st7" d="M95.4,8.1c0.1,0,0.2,0,0.2,0.1l-1.4,57.3c0,0.1,0,0.2,0,0.2l0,0.2l0,0c-0.4,1.1-3.4,1.1-7.8,0.3
			c-0.1,0-0.1-0.1-0.1-0.2l7.3-58l0,0C94.4,8.2,95,8.2,95.4,8.1z"/>
		<path class="st6" d="M95.6,8l-1.4,57.5c0,0.1,0,0.2,0,0.2l0,0.2l0,0c-0.4,1.1-3.4,1.1-7.9,0.2L93.5,8l0,0
			C94.7,8.2,95.3,8.1,95.6,8z"/>
	</g>
</g>
</svg>
