<?xml version="1.0" encoding="utf-8"?>
<!-- Generator: Adobe Illustrator 24.0.1, SVG Export Plug-In . SVG Version: 6.00 Build 0)  -->
<svg version="1.1" id="Layer_1" xmlns="http://www.w3.org/2000/svg" xmlns:xlink="http://www.w3.org/1999/xlink" x="0px" y="0px"
	 viewBox="0 0 380 380" style="enable-background:new 0 0 380 380;" xml:space="preserve">
<style type="text/css">
	.st0{fill:url(#path1948_1_);}
	.st1{fill:url(#path1950_1_);}
	.st2{fill:#FFFFFF;}
	.st3{fill:#E76026;}
	.st4{fill:none;stroke:#F15A24;stroke-width:2;stroke-miterlimit:10;}
	.st5{fill:#EF6A22;}
	.st6{fill:#FFFFFF;stroke:#F15A24;stroke-width:2;stroke-miterlimit:10;}
	.st7{opacity:0.31;}
</style>
<linearGradient id="path1948_1_" gradientUnits="userSpaceOnUse" x1="218.0811" y1="36.2851" x2="71.8094" y2="37.448" gradientTransform="matrix(1.1901 0 0 -1.1901 -14.0081 255.1653)">
	<stop  offset="0" style="stop-color:#366A96"/>
	<stop  offset="1" style="stop-color:#3679B0"/>
</linearGradient>
<path id="path1948" class="st0" d="M132.2,155.6c0-16.2,4.3-25,28.4-29.2c16.3-2.9,37.2-3.2,56.7,0c15.4,2.5,28.4,14,28.4,29.2v53.5
	c0,15.7-12.6,28.5-28.4,28.5h-56.7c-19.2,0-35.4,16.4-35.4,34.9v25.7h-19.5c-16.5,0-26.1-11.9-30.1-28.5c-5.4-22.3-5.2-35.7,0-57.1
	c4.5-18.7,18.9-28.5,35.4-28.5h21.3h56.7V177h-56.7V155.6L132.2,155.6z"/>
<linearGradient id="path1950_1_" gradientUnits="userSpaceOnUse" x1="269.3973" y1="-14.0604" x2="-20.1512" y2="-14.0604" gradientTransform="matrix(1.1901 0 0 -1.1901 -14.0081 255.1653)">
	<stop  offset="0" style="stop-color:#FFC836"/>
	<stop  offset="1" style="stop-color:#FFE873"/>
</linearGradient>
<path id="path1950" class="st1" d="M245.6,326.8c0,16.2-14.1,24.4-28.4,28.5c-21.5,6.2-38.7,5.2-56.7,0c-15-4.4-28.4-13.3-28.4-28.5
	v-53.5c0-15.4,12.8-28.5,28.4-28.5h56.7c18.9,0,35.4-16.3,35.4-35.7v-24.9h21.3c16.5,0,24.3,12.3,28.4,28.5
	c5.7,22.6,5.9,39.5,0,57.1c-5.7,17.1-11.9,28.5-28.4,28.5h-28.4h-56.7v7.1h56.7V326.8z"/>
<path id="path1952" class="st2" d="M146.3,152.1c0-5.9,4.7-10.7,10.6-10.7c5.9,0,10.6,4.8,10.6,10.7c0,5.9-4.8,10.7-10.6,10.7
	C151.1,162.8,146.3,158,146.3,152.1z"/>
<path id="path1954" class="st2" d="M210.1,330.4c0-5.9,4.8-10.7,10.6-10.7c5.9,0,10.6,4.8,10.6,10.7c0,5.9-4.7,10.7-10.6,10.7
	C214.9,341.1,210.1,336.3,210.1,330.4z"/>
<g>
	<g>
		<path class="st3" d="M210.8,123.2c31.6,10.8,55.5,24.4,53.5,30.5l-1.7,5.1c-2.1,6.1-29.4,2.3-61-8.5S146,125.9,148,119.8l1.7-5.1
			C151.9,108.6,179.2,112.4,210.8,123.2z"/>
		<path class="st4" d="M210.8,123.2c31.6,10.8,55.5,24.4,53.5,30.5l-1.7,5.1c-2.1,6.1-29.4,2.3-61-8.5S146,125.9,148,119.8l1.7-5.1
			C151.9,108.6,179.2,112.4,210.8,123.2z"/>
	</g>
	<g>
		<path class="st5" d="M165,118.8l73.4-100.4l14.4,4.9l-3.1,124.7c0,0.2,0,0.3,0,0.5l0,0.3l-0.1,0c-1.5,4.5-21.9,1.7-45.5-6.3
			c-23.6-8-41.4-18.2-39.9-22.7C164.4,119.3,164.6,119,165,118.8z"/>
		<path class="st4" d="M165,118.8l73.4-100.4l14.4,4.9l-3.1,124.7c0,0.2,0,0.3,0,0.5l0,0.3l-0.1,0c-1.5,4.5-21.9,1.7-45.5-6.3
			c-23.6-8-41.4-18.2-39.9-22.7C164.4,119.3,164.6,119,165,118.8z"/>
	</g>
	<g>
		
			<ellipse transform="matrix(0.3223 -0.9466 0.9466 0.3223 146.7582 246.5952)" class="st3" cx="245.6" cy="20.8" rx="1.9" ry="7.6"/>
		
			<ellipse transform="matrix(0.3223 -0.9466 0.9466 0.3223 146.7582 246.5952)" class="st4" cx="245.6" cy="20.8" rx="1.9" ry="7.6"/>
	</g>
	<g>
		<path class="st5" d="M241.9,19.5c0.2-0.5,2-0.4,4,0.3c2.1,0.7,3.6,1.7,3.4,2.2c-0.2,0.5-2,0.4-4-0.3C243.2,21,241.7,20,241.9,19.5
			z"/>
		<path class="st4" d="M241.9,19.5c0.2-0.5,2-0.4,4,0.3c2.1,0.7,3.6,1.7,3.4,2.2c-0.2,0.5-2,0.4-4-0.3C243.2,21,241.7,20,241.9,19.5
			z"/>
	</g>
</g>
<path class="st6" d="M251.3,85.3l-0.9,34c-24.3-2.7-47.8-10.7-68.8-23.4l20.1-27.4C217.3,76.6,234,82.3,251.3,85.3z"/>
<g class="st7">
	<path class="st5" d="M251.1,22.2l-3,125.8c0,0.2,0,0.3,0,0.5l0,0.3l-0.1,0c-0.9,2.4-7.3,2.4-17,0.5l15.7-127l0,0
		C249.1,22.8,250.9,22.8,251.1,22.2z"/>
	<path class="st4" d="M251.1,22.2l-3,125.8c0,0.2,0,0.3,0,0.5l0,0.3l-0.1,0c-0.9,2.4-7.3,2.4-17,0.5l15.7-127l0,0
		C249.1,22.8,249.6,22.6,251.1,22.2z"/>
</g>
</svg>
