<?xml version="1.0" standalone="no"?>
<!DOCTYPE svg PUBLIC "-//W3C//DTD SVG 20010904//EN"
 "http://www.w3.org/TR/2001/REC-SVG-20010904/DTD/svg10.dtd">
<svg version="1.0" xmlns="http://www.w3.org/2000/svg"
 width="1024.000000pt" height="1024.000000pt" viewBox="0 0 1024.000000 1024.000000"
 preserveAspectRatio="xMidYMid meet">
<metadata>
Created by potrace 1.11, written by Peter Selinger 2001-2013
</metadata>
<g transform="translate(0.000000,1024.000000) scale(0.100000,-0.100000)"
fill="#000000" stroke="none">
<path d="M6571 10128 c-14 -7 -477 -633 -1030 -1390 l-1006 -1377 -70 7 c-38
4 -142 7 -230 7 -154 0 -162 -1 -216 -27 -30 -15 -61 -38 -67 -50 -25 -47 -62
-173 -62 -208 0 -45 40 -110 104 -168 26 -24 46 -45 44 -46 -2 -2 -39 -15 -83
-30 -261 -91 -416 -239 -470 -451 -26 -102 -35 -259 -35 -612 l0 -343 830 0
830 0 0 -105 0 -105 -1206 0 c-1172 0 -1209 -1 -1305 -20 -320 -66 -568 -257
-718 -557 -93 -185 -181 -601 -200 -943 -17 -304 19 -621 115 -1005 106 -422
336 -700 653 -788 69 -19 107 -21 438 -25 l362 -4 3 464 4 463 27 90 c116 374
414 651 797 741 68 16 166 18 1050 24 1096 6 1014 0 1185 85 165 82 292 211
375 380 78 160 74 110 80 970 l5 770 25 -2 c14 -1 93 -3 175 -4 162 -3 237 11
288 51 35 28 92 196 84 250 -11 82 -124 193 -321 314 l-96 60 1 40 c0 23 20
793 43 1711 41 1574 42 1671 27 1695 -51 75 -362 174 -430 138z m-935 -1609
c391 -186 802 -321 1212 -400 l62 -12 0 -126 c0 -188 -19 -804 -25 -809 -8 -8
-186 17 -350 49 -511 101 -1001 278 -1448 526 -79 44 -136 81 -133 88 7 20
540 745 547 745 3 0 64 -28 135 -61z m-1330 -2058 c144 -64 220 -239 169 -392
-27 -80 -121 -171 -200 -194 -208 -61 -405 85 -405 299 0 85 23 146 77 206 95
105 233 136 359 81z"/>
</g>
</svg>
